<svg
  xmlns="http://www.w3.org/2000/svg"
  viewBox="0 0 512 512"
  role="img"
  aria-label="OpenCuff logo"
>
  <defs>
    <radialGradient id="bg" cx="50%" cy="35%" r="65%">
      <stop offset="0%" stop-color="#4ac2ff" stop-opacity="0.35" />
      <stop offset="100%" stop-color="#0a1426" />
    </radialGradient>
    <linearGradient id="shield" x1="0%" y1="0%" x2="100%" y2="100%">
      <stop offset="0%" stop-color="#223a66" />
      <stop offset="100%" stop-color="#101c33" />
    </linearGradient>
  </defs>
  <circle cx="256" cy="256" r="248" fill="url(#bg)" stroke="#dbe7ff" stroke-width="10" />
  <path
    d="M256 100 L384 152 L384 268 Q384 360 256 428 Q128 360 128 268 L128 152 Z"
    fill="url(#shield)"
    stroke="#dbe7ff"
    stroke-width="10"
  />
  <g fill="#eef4ff">
    <rect x="214" y="210" width="84" height="110" rx="18" />
    <rect x="196" y="150" width="20" height="70" rx="10" />
    <rect x="220" y="140" width="20" height="80" rx="10" />
    <rect x="244" y="135" width="20" height="85" rx="10" />
    <rect x="268" y="140" width="20" height="80" rx="10" />
    <rect x="292" y="155" width="20" height="70" rx="10" />
    <rect x="300" y="238" width="52" height="46" rx="18" transform="rotate(-25 300 238)" />
  </g>
  <circle cx="256" cy="266" r="36" fill="#0a1426" stroke="#4ac2ff" stroke-width="4" />
  <text
    x="256"
    y="272"
    text-anchor="middle"
    font-family="Inter, sans-serif"
    font-size="20"
    fill="#4ac2ff"
    font-weight="600"
  >
    AI
  </text>
  <g stroke="#4ac2ff" stroke-width="4" stroke-linecap="round">
    <line x1="180" y1="228" x2="150" y2="228" />
    <line x1="332" y1="228" x2="362" y2="228" />
    <line x1="256" y1="188" x2="256" y2="156" />
  </g>
</svg>

